# xmcd
#
# Track frame offsets:
#	182
#	12850
#	23145
#	36560
#	47575
#	58442
#	73282
#	86922
#	102185
#	117687
#	132595
#	147852
#	159567
#	172712
#	187520
#	205565
#	219740
#	235402
#	250807
#	266685
#
# Disc length: 3816
#
# Revision: 1
# Processed by: cddbd v1.5.1PL0 Copyright (c) Steve Scherf et al.
# Submitted via: VisiTrax 2.9.3.171 - For more info visit www.synapsa.com
# Normalized: r0:DSETVAR1
#
DISCID=280ee614
DTITLE=Various Artist - Honky Tonkin' - B
DYEAR=1900
DGENRE=Country
TTITLE0=Yoakam, Dwight - Honky Tonk Man
TTITLE1=Jones, George - I'm a One Woman Man
TTITLE2=Hobbs, Becky - Jones on the Jukebox
TTITLE3=Gosdin, Vern - Set 'em up Joe
TTITLE4=Rabbitt, Eddie - Two Dollars in the Jukebox
TTITLE5=Highway 101 - Somewhere Tonight
TTITLE6=Anderson, John - Swingin'
TTITLE7=Desert Rose Band, The - One Step Forward
TTITLE8=Milsap, Ronnie - Houston Solution
TTITLE9=Shelton, Rickey Van - Somebody Lied
TTITLE10=Alabama - If You're Gonna Play in Texas (You Gotta Have a Fiddle in the Band)
TTITLE11=Twitty, Conway - Don't Call Him a Cowboy
TTITLE12=Tucker, Tanya - It Won't Be Me
TTITLE13=Jennings, Waylon - Luckenbach, Tcxas
TTITLE14=Williams, Hank Jr. - Family Tradition
TTITLE15=Tritt, Travis - Country Club
TTITLE16=Carter, Carlene - I Fell In Love
TTITLE17=Bellamy Brothers, The - Redneck Girl
TTITLE18=Lee, Johnny - Lookin' For Love
TTITLE19=Travis, Randy - Reasons I Cheat
EXTD=
EXTT0=
EXTT1=
EXTT2=
EXTT3=
EXTT4=
EXTT5=
EXTT6=
EXTT7=
EXTT8=
EXTT9=
EXTT10=
EXTT11=
EXTT12=
EXTT13=
EXTT14=
EXTT15=
EXTT16=
EXTT17=
EXTT18=
EXTT19=
PLAYORDER=
